<?xml version="1.0" encoding="utf-8"?>
<!-- Generator: Adobe Illustrator 17.1.0, SVG Export Plug-In . SVG Version: 6.00 Build 0)  -->
<!DOCTYPE svg PUBLIC "-//W3C//DTD SVG 1.1//EN" "http://www.w3.org/Graphics/SVG/1.1/DTD/svg11.dtd">
<svg version="1.1" id="Layer_1" xmlns="http://www.w3.org/2000/svg" xmlns:xlink="http://www.w3.org/1999/xlink" x="0px" y="0px"
	 viewBox="0 0 512 512" enable-background="new 0 0 512 512" xml:space="preserve">
<g>
	<path fill="#5D5D5D" stroke="#5D5D5D" stroke-miterlimit="10" d="M488.3,125.5c0,0,3.8-35.7-19.4-35.7H256.6H256H43.8
		c-23.2,0-19.4,35.7-19.4,35.7h-0.2v264.4h31.3V125.5H256h0.6h200.5v228.7H55.5v35.7h401.7l0,0h31.3V125.5H488.3z"/>
	<rect x="55.5" y="125.5" fill="#5F6170" stroke="#5D5D5D" stroke-miterlimit="10" width="401.7" height="232.2"/>
	<path fill="#BCC4CC" d="M383,390.1H278.7h-45.4h-82.7H1c0,0,4.3,32.1,19.4,32.1h130.2h82.7h45.4h84.8h128
		c15.1,0,19.4-32.1,19.4-32.1H383z"/>
	<path opacity="0.55" fill="#575A5B" enable-background="new    " d="M278.4,390.1h-17.8h-7.8h-14.2H213c0,0,0.8,10.2,3.3,10.2h22.3
		h14.2h7.8H275H297c2.6,0,3.3-10.2,3.3-10.2H278.4z"/>
</g>
</svg>
