<?xml version="1.0" encoding="utf-8"?>
<!-- Generator: Adobe Illustrator 17.1.0, SVG Export Plug-In . SVG Version: 6.00 Build 0)  -->
<!DOCTYPE svg PUBLIC "-//W3C//DTD SVG 1.1//EN" "http://www.w3.org/Graphics/SVG/1.1/DTD/svg11.dtd">
<svg version="1.1" id="Layer_1" xmlns="http://www.w3.org/2000/svg" xmlns:xlink="http://www.w3.org/1999/xlink" x="0px" y="0px"
	 viewBox="0 0 640 640" enable-background="new 0 0 640 640" xml:space="preserve">
<circle fill="#939598" cx="320" cy="320" r="320"/>
<g>
	<g>
		<path fill="#5D5D5D" stroke="#5D5D5D" stroke-miterlimit="10" d="M498.3,219.9c0,0,2.9-27.4-14.9-27.4H320.5H320H157.2
			c-17.8,0-14.9,27.4-14.9,27.4h-0.2v202.9h24V219.9H320h0.5h153.9v175.5H166.2v27.4h308.3l0,0h24V219.9H498.3z"/>
		<rect x="166.2" y="219.9" fill="#A3D3E8" stroke="#5D5D5D" stroke-miterlimit="10" width="308.3" height="178.2"/>
	</g>
	<path fill="#C7C7C7" d="M417.5,422.9h-80h-34.8h-63.5H124.4c0,0,3.3,24.6,14.9,24.6h99.9h63.5h34.8h65.1h98.2
		c11.6,0,14.9-24.6,14.9-24.6H417.5z"/>
	<path opacity="0.55" fill="#575A5B" enable-background="new    " d="M337.2,422.9h-13.7h-6h-10.9H287c0,0,0.6,7.8,2.5,7.8h17.1
		h10.9h6h11.1h16.9c2,0,2.5-7.8,2.5-7.8H337.2z"/>
</g>
</svg>
