<?xml version="1.0" encoding="utf-8"?>
<!-- Generator: Adobe Illustrator 18.0.0, SVG Export Plug-In . SVG Version: 6.00 Build 0)  -->
<!DOCTYPE svg PUBLIC "-//W3C//DTD SVG 1.1//EN" "http://www.w3.org/Graphics/SVG/1.1/DTD/svg11.dtd">
<svg version="1.1" id="Layer_1" xmlns="http://www.w3.org/2000/svg" xmlns:xlink="http://www.w3.org/1999/xlink" x="0px" y="0px"
	 viewBox="0 0 380 72.7" enable-background="new 0 0 380 72.7" xml:space="preserve">
<g>
	<path fill="#FFFFFF" d="M205,29.2c-2.2,0-4,1.8-4.3,4.1l0,0.1l0,0.1c0.6,1.9,0.9,4.1,0.9,6.9c0,4.8-2.2,10.7-6,16.2
		c-4.2,6.1-8.9,9.3-11.4,9.3c-2.2,0-3.5-1.3-3.5-3.8c0-1.9,1.4-6.9,2.9-11.4c0.3-1.1-0.1-2.1-1-2.7c-1.2-0.7-3.9-0.8-6.4,2.2
		c-2.6,3.2-9.7,13.8-16.2,15.3c0,0-2.2,1.3,0.1-5.5c1.4-4,6.8-17.5,6.8-17.5c1.2-3.3,1.7-5.7,1.7-7.4c0-2.7-1.4-5.9-5.6-5.9
		c-5.2,0-12.3,5.4-17.5,12.2c0.3-0.7,0.8-1.7,1.3-2.8c2.9-6.1,6.9-18.6,9.2-26.9c1.2-4.4,1.3-7.9-0.2-9.9c-0.7-0.9-2.1-2-4.8-1.7
		c-3.1,0.3-6.4,3.2-6.3,5c0,0.3,0.2,1.3,1.7,1.3c1.1,0,2.9,0.5,2.7,3.5c-0.8,4.8-9,27-15.2,43.6c-2.1,2.6-7.2,8.5-13.4,11.5
		c-0.1,0-5,2.1-3.3-2.1c0,0,7.1-20.8,8.2-23.9c0.8,0,8.1,0,8.1,0l1.5-4.6c0,0-6.9,0-8.1,0l2.3-8.2c-0.2,0.2-4.5-0.4-4.5-0.4
		c0,0.1-3.2,9.2-12,9.4l-0.4,0l-1.5,3.8c0,0,5.9,0,7.2,0c-0.5,1.4-5.2,14.2-5.2,14.2c-0.1,0.1-0.6,1.9-1.2,3.9
		c-3.1,2.9-7.3,6.4-10.4,7.8C98.5,66,97,65,97.9,62.6c1.9-5.1,3.6-9.4,5.4-13.9c1.3-3.2,2.3-5.8,2.8-7.2c0.6-2.6,0.3-4.6-1-6.3
		c-1.9-2.4-5.3-3-7-3c-2.8,0-5.3,0.8-8.9,2.8c-4.2,2.4-8.4,6.4-12.8,12.5c-1.4,1.9-3.9,5.7-5.7,10c-1.7,2.6-6.6,8.6-14.7,9.4
		c-4,0.4-6-2.4-6-5.1c0-3.5,0.6-6.2,1.2-7.7c15.4-4.3,22.6-9.3,22.6-15.8c0-2.6-2.2-6.1-6.4-6.1c-3.8,0-7.4,1.4-11.4,4.6
		c-10.3,7.9-14,19.5-14,25.3c0,0,0,0.4,0,0.8c0,0-2,2.1-6.2,3.7c-4.2,1.6-5.1,0-3.4-4.5c0,0,6.8-19.2,6.8-19.2
		c1.2-3.3,1.7-5.7,1.7-7.4c0-2.7-1.4-5.9-5.6-5.9c-5.2,0-12.3,5.4-17.5,12.2c0.3-0.7,0.8-1.7,1.3-2.8c2.9-6.1,6.5-17.3,9.3-27.2
		c1.3-4.2,1.2-7.6-0.3-9.6c-0.7-0.9-2.1-2-4.8-1.7c-3.1,0.3-6.4,3.2-6.3,5c0,0.3,0.2,1.3,1.7,1.3c1.2,0,3.9,0.6,3.5,4.2
		C19.9,20.6,0,72.3,0,72.3l6.7,0l0.1-0.4c0.1-0.1,5.4-14.7,9.2-20.4c3.9-5.9,11.2-16,15.1-16c0.4,0,1.6,0,1.6,1.8
		c0,1.4-0.6,3.6-1.8,6.8c0,0-6.6,18.7-6.6,18.7c-2,5.6-1,9.9,3.8,9.9c8.2,0,15-5.5,15-5.5c1.3,3.2,5,5.6,8.3,5.5
		c7.5-0.2,14.4-4.4,17.2-7.3c-0.3,3.8,1.4,6.8,4.3,6.8c6.8,0,13.3-6,19.8-13.2c-0.9,2.5-1.7,5.2-1.7,5.2c-0.9,5.5,1.8,8.6,5.5,8.1
		c4.5-0.6,10.2-5.3,13.1-8c-0.5,1.9-1.5,7.8,4.3,8.1c5.2,0.3,11.4-3.7,16.6-9.4c-2.1,5.6-3.6,9.3-3.6,9.3l7.6,0l0.1-0.4
		c0.1-0.1,5.4-14.7,9.2-20.4c3.9-5.9,11.2-16,15.1-16c0.4,0,1.6,0,1.6,1.8c0,1.4-0.6,3.6-1.8,6.8c0,0-4.2,11-5.6,16.3
		c-1.9,6.9-1.1,11.4,3.4,11.6c5.4,0.2,14.3-6.6,18.1-13.5c0.1-0.1,0.2-0.2,0.3-0.3c-0.9,2.8-1.6,5.1-1.6,7.7c0,3.4,2.8,6.2,6.1,6.2
		c4.2,0,11.9-3.2,19.4-12.3c8.1-9.7,10.9-18.8,10.9-24C209.5,31.7,207.8,29.2,205,29.2z M58.7,40.6c3.3-3.6,5.7-4.4,7-4.4
		c1.7,0,2.1,1.2,2.1,2.1c0,0.8-0.7,3-3.6,5.7c-3.4,3.2-6.3,5-12.4,6.8C53,48.1,55.1,44.4,58.7,40.6z M87.2,59.1
		c-5.4,5-9.1,7.5-10.7,4.4c-2-4,2.7-14.3,11.9-22.2c7.4-6.4,12.3-3.4,11.5-0.3C98.4,46.6,94.4,52.4,87.2,59.1z"/>
	<path fill="#FFFFFF" d="M377.4,57.6c-1.8,1.9-9.2,8.7-14.6,9.6c-5.1,0.8-6.2-3.2-6.2-5.9c0-3.4,0.6-6.1,1.2-7.6
		c15.2-4.3,22.3-9.2,22.3-15.6c0-2.5-2.2-6.1-6.3-6.1c-3.7,0-7.3,1.4-11.3,4.5c-5.8,4.5-9.5,10.4-11.5,15.6
		c-2.3,3.8-8.4,12.9-15.8,14.2c-2.2,0.4-6.4-0.5-6.2-5.3c0.3-7.3,2.6-13.8,5.7-18.4c2.9-4.4,5.9-6.3,8-6.3c3.1,0,2.9,2.8,3.3,5.2
		c0.1,1.1,1,1.7,1.9,1.7c1,0,4.6-1.9,4.6-5.7c0-2.9-2.3-5.6-7-5.6c-4.3,0-8.3,1.9-12.3,5.5c-6,5.4-9.6,12.4-11.1,18.2l-0.6,2.8
		c-2.8,2.5-6.1,5.1-8.7,6.2c-2.8,1.2-4.2,0.2-3.4-2.2c1.9-5.1,3.6-9.4,5.4-13.9c1.3-3.2,2.3-5.8,2.8-7.2c0.6-2.6,0.3-4.6-1-6.3
		c-1.9-2.4-5.3-3-7-3c-2.8,0-5.3,0.8-8.9,2.8c-4.2,2.4-8.4,6.4-12.8,12.5c-1.7,2.3-4.8,7.2-6.7,12.6c-2.4,2.1-5.1,4.1-7.2,5
		c-2.7,1.2-3.2-1-2.4-3.3c0.3-0.7,15.3-41.1,18.1-51.2c0.1-0.3,0.2-0.7,0.2-1c0.7-3.3,0.5-6.1-0.8-7.7c-0.7-0.9-2.1-2-4.8-1.7
		c-3.1,0.3-6.4,3.2-6.3,5c0,0.3,0.2,1.3,1.7,1.3c1.3,0,3.4,0.7,2.6,4.7c-2.1,8.3-12.4,35.4-16.4,45.7c-3.1,2.9-7.6,6.8-10.8,8.3
		c-2.7,1.2-3.2-1-2.4-3.3c0.3-0.7,13.7-36.8,17.6-49.3c1.6-4.7,1.6-8.5,0-10.6c-0.7-0.9-2.1-2-4.8-1.7c-3.1,0.3-6.4,3.2-6.3,5
		c0,0.3,0.2,1.3,1.7,1.3c1.1,0,3,0.6,2.7,3.7c-1.5,7.1-13,37.4-16.9,47.5c-3,2.8-6.9,6-9.8,7.2c-2.8,1.2-4.2,0.2-3.4-2.2
		c1.9-5.1,3.6-9.4,5.4-13.9c1.3-3.2,2.3-5.8,2.8-7.2c0.6-2.6,0.3-4.6-1-6.3c-1.9-2.4-5.3-3-7-3c-2.8,0-5.3,0.8-8.9,2.8
		c-4.2,2.4-8.4,6.4-12.8,12.5c-2.1,2.9-6.7,10-7.9,17c-0.7,4.2,1.1,7.8,4.2,7.8c6.8,0,13.3-6,19.8-13.2c-0.9,2.5-1.7,5.2-1.7,5.2
		c-0.9,5.5,1.8,8.6,5.5,8.1c4.5-0.6,10.2-5.3,13.2-8c0,0.1-0.1,0.1-0.1,0.1c-0.9,5.3,1.8,8.3,5.3,7.8c5.2-0.7,12.1-7.1,14.1-9
		c-0.3,0.7-0.5,1.2-0.5,1.2c-0.9,5.3,1.8,8.3,5.3,7.8c3.4-0.4,7.6-3.4,10.7-5.9c0,3.3,1.7,5.9,4.3,5.9c6.8,0,13.3-6,19.8-13.2
		c-0.9,2.5-1.6,5.2-1.6,5.2c-0.9,5.5,1.8,8.6,5.4,8.1c4.6-0.6,10.6-5.6,13.4-8.2c1,5.8,5.9,8,8.8,8c8.2,0,15-6.4,18.6-10.5
		c0,0,0,0,0,0c-0.2,5.7,3.9,10.5,9.1,10.7c10.2,0.3,19.3-10,21.6-13.1C380.6,57.3,378.8,56.1,377.4,57.6z M365.2,40.6
		c3.3-3.6,5.7-4.4,7-4.4c1.7,0,2.1,1.2,2.1,2.1c0,0.8-0.7,3-3.6,5.7c-3.4,3.2-6.3,5-12.4,6.8C359.5,48.1,361.6,44.4,365.2,40.6z
		 M222.6,59.1c-5.4,5-9.1,7.5-10.7,4.4c-2-4,2.7-14.3,11.9-22.2c7.4-6.4,12.3-3.4,11.5-0.3C233.9,46.6,229.9,52.4,222.6,59.1z
		 M298.6,59.1c-5.4,5-9.1,7.5-10.7,4.4c-2-4,2.7-14.3,11.9-22.2c7.4-6.4,12.3-3.4,11.5-0.3C309.8,46.6,305.8,52.4,298.6,59.1z"/>
</g>
</svg>
