<?xml version="1.0" encoding="utf-8"?>
<!-- Generator: Adobe Illustrator 17.1.0, SVG Export Plug-In . SVG Version: 6.00 Build 0)  -->
<!DOCTYPE svg PUBLIC "-//W3C//DTD SVG 1.1//EN" "http://www.w3.org/Graphics/SVG/1.1/DTD/svg11.dtd">
<svg version="1.1" id="Layer_1" xmlns="http://www.w3.org/2000/svg" xmlns:xlink="http://www.w3.org/1999/xlink" x="0px" y="0px"
	 viewBox="0 0 512 512" enable-background="new 0 0 512 512" xml:space="preserve">
<g>
	<path fill="#5F6170" d="M96.4,37.8c-19.6,0-36.7,0-36.7,28.1V256v190.1c0,28.1,17,28.1,36.7,28.1H390V464h-285
		c-17.9,0-33.6,0-34.8-23.7c1.2-23.7,16.9-23.7,34.8-23.7h285V256V37.8H96.4z"/>
	<g>
		<rect x="108" y="416.6" fill="#E8E8E8" width="278.6" height="47.4"/>
		<path fill="#474747" d="M70.3,440.3c1.2-23.7,16.9-23.7,34.8-23.7h3V256V37.8H96.4c-19.6,0-36.7,0-36.7,28.1V256v190.1
			c0,28.1,17,28.1,36.7,28.1H108V464h-3C87.2,464,71.5,464,70.3,440.3z"/>
		<path fill="#E8E8E8" d="M105.1,416.6c-17.9,0-33.6,0-34.8,23.7C71.5,464,87.2,464,105.1,464h3v-47.4L105.1,416.6L105.1,416.6z"/>
	</g>
	<g>
		<rect x="428.8" y="269.5" fill="#5F6170" width="23.4" height="178.3"/>
		<path fill="#E8E8E8" d="M428.8,269.5h23.4c0,0-9.1-34.1-11.7-34.1C438,235.4,428.8,269.5,428.8,269.5z"/>
		<g>
			<path fill="#474747" d="M440.5,235.4c-0.6,0-1.5,1.9-2.6,4.7h5.3C442,237.2,441.1,235.4,440.5,235.4z"/>
		</g>
		<g>
			<path fill="#E8E8E8" d="M428.8,467.4c0,3.7,2.7,6.8,6,6.8h11.4c3.3,0,6-3.1,6-6.8v-7.3h-23.4V467.4z"/>
			<polygon fill="#5D5D5D" points="446.2,447.8 434.8,447.8 428.8,447.8 428.8,454.6 428.8,460.1 452.2,460.1 452.2,454.6 
				452.2,447.8 			"/>
		</g>
	</g>
</g>
</svg>
