<?xml version="1.0" encoding="utf-8"?>
<!-- Generator: Adobe Illustrator 17.1.0, SVG Export Plug-In . SVG Version: 6.00 Build 0)  -->
<!DOCTYPE svg PUBLIC "-//W3C//DTD SVG 1.1//EN" "http://www.w3.org/Graphics/SVG/1.1/DTD/svg11.dtd">
<svg version="1.1" id="Layer_1" xmlns="http://www.w3.org/2000/svg" xmlns:xlink="http://www.w3.org/1999/xlink" x="0px" y="0px"
	 viewBox="0 0 641 640" enable-background="new 0 0 641 640" xml:space="preserve">
<circle fill="#939598" cx="320.5" cy="320" r="320"/>
<path fill="#A3D3E8" d="M418.1,436.9V320V161.1H204.3c-14.3,0-26.7,0-26.7,20.5V320v138.4c0,20.5,12.4,20.5,26.7,20.5h213.8v-7.4
	V436.9z"/>
<path fill="#5D5D5D" d="M212.8,436.9V320V161.1h-8.5c-14.3,0-26.7,0-26.7,20.5V320v138.4c0,20.5,12.4,20.5,26.7,20.5h8.4v-7.4"/>
<rect x="446.4" y="327" fill="#A3D3E8" width="26.3" height="132.3"/>
<path fill="#C7C7C7" d="M446.4,327h26.3c0,0-10.2-25.3-13.2-25.3C456.7,301.7,446.4,327,446.4,327z"/>
<g>
	<path fill="#474747" d="M459.5,301.7c-0.7,0-1.7,1.4-2.9,3.5h6C461.2,303,460.2,301.7,459.5,301.7z"/>
</g>
<path fill="#C7C7C7" d="M446.4,473.8c0,2.7,3,5,6.7,5h12.8c3.7,0,6.7-2.3,6.7-5v-5.4h-26.3V473.8z"/>
<polygon fill="#5D5D5D" points="465.9,459.3 453.1,459.3 446.4,459.3 446.4,464.3 446.4,468.4 472.7,468.4 472.7,464.3 472.7,459.3 
	"/>
</svg>
