<?xml version="1.0" encoding="utf-8"?>
<!-- Generator: Adobe Illustrator 18.0.0, SVG Export Plug-In . SVG Version: 6.00 Build 0)  -->
<!DOCTYPE svg PUBLIC "-//W3C//DTD SVG 1.1//EN" "http://www.w3.org/Graphics/SVG/1.1/DTD/svg11.dtd">
<svg version="1.1" id="Layer_1" xmlns="http://www.w3.org/2000/svg" xmlns:xlink="http://www.w3.org/1999/xlink" x="0px" y="0px"
	 viewBox="0 0 68 68" enable-background="new 0 0 68 68" xml:space="preserve">
<g>
	<path fill="#FFFFFF" d="M50.1,23c-0.3,2.3-1.2,4.3-2.6,5.9c-1.4,1.6-3.2,2.8-5.3,3.4c2.6,0.3,4.7,1.6,6,3.7
		c1.4,2.1,1.9,4.5,1.5,7.3c-0.6,4.1-2.3,7.2-5,9.2s-6.2,3.1-10.4,3.1H18.8l6.4-44.1h12.5c4.3,0,7.5,1,9.8,2.9
		C49.8,16.2,50.7,19.1,50.1,23 M34,2.4C17.1,2.4,3.5,16.6,3.5,34S17.1,65.6,34,65.6c16.9,0,30.5-14.1,30.5-31.6S50.9,2.4,34,2.4"/>
	<path fill="#FFFFFF" d="M44.9,16.5c-1.6-1.4-4.1-2-7.6-2h-8.9l-2.4,16.7h10.3c2.9-0.1,5.2-0.8,7.1-2.2c1.9-1.4,3-3.4,3.4-6.1
		C47,19.9,46.4,17.8,44.9,16.5"/>
	<path fill="#FFFFFF" d="M37.2,34.2H25.4l-2.6,18.2h11.9c3,0,5.6-0.8,7.7-2.4c2.1-1.6,3.3-3.9,3.8-6.7c0.4-2.7-0.2-4.9-1.7-6.5
		c-1.5-1.6-3.8-2.4-6.8-2.5H37.2z"/>
</g>
</svg>
