<?xml version="1.0" encoding="utf-8"?>
<!-- Generator: Adobe Illustrator 17.1.0, SVG Export Plug-In . SVG Version: 6.00 Build 0)  -->
<!DOCTYPE svg PUBLIC "-//W3C//DTD SVG 1.1//EN" "http://www.w3.org/Graphics/SVG/1.1/DTD/svg11.dtd">
<svg version="1.1" id="Layer_1" xmlns="http://www.w3.org/2000/svg" xmlns:xlink="http://www.w3.org/1999/xlink" x="0px" y="0px"
	 viewBox="0 0 1280 548" enable-background="new 0 0 1280 548" xml:space="preserve">
<rect fill="#96CA2D" width="1280" height="548"/>
<g>
	<g>
		<g>
			<path fill="#FFFFFF" d="M473.7,207.8c-4.9-2.4-13-2.4-18,0l-52.2,25.5c-4.9,2.4-9,8.9-9,14.4v81.3c0,5.5,4.5,10,10,10h120.4
				c5.5,0,10-4.5,10-10v-81.3c0-5.5-4-12-9-14.4L473.7,207.8z"/>
		</g>
		<g>
			<path fill="#96CA2D" d="M472.7,340.4h-15.9v-83.9H428v-13.7h73.3v13.7h-28.7V340.4z"/>
		</g>
	</g>
	<g>
		<path fill="#FFFFFF" d="M615.5,331.1c6,0,11.2-0.5,15.6-1.5v7.6c-4.6,1.5-9.8,2.3-15.8,2.3c-9.1,0-15.9-2.4-20.2-7.3
			c-4.3-4.9-6.5-12.6-6.5-23v-66.8h-15.3v-5.5l15.3-4.3l4.8-23.4h4.9v25h30.3v8.2h-30.3v65.4c0,7.9,1.4,13.8,4.2,17.6
			C605.1,329.2,609.5,331.1,615.5,331.1z"/>
		<path fill="#FFFFFF" d="M652.1,205.5c0-6.1,2-9.1,6-9.1c2,0,3.5,0.8,4.6,2.4c1.1,1.6,1.7,3.8,1.7,6.8c0,2.9-0.6,5.1-1.7,6.8
			c-1.1,1.6-2.6,2.5-4.6,2.5C654.1,214.7,652.1,211.6,652.1,205.5z M662.9,337.6h-9.4V234.2h9.4V337.6z"/>
		<path fill="#FFFFFF" d="M735.3,232.2c7.5,0,14,1.4,19.4,4.1c5.5,2.7,10.3,7.4,14.6,14h0.6c-0.4-8-0.6-15.8-0.6-23.5v-37.2h9.3v148
			h-6.2l-2.4-15.8h-0.8c-7.9,11.8-19.2,17.7-33.9,17.7c-14.3,0-25.2-4.4-32.7-13.3c-7.5-8.9-11.3-21.8-11.3-38.8
			c0-17.9,3.7-31.5,11.2-41C710.2,236.9,721.1,232.2,735.3,232.2z M735.3,240.8c-11.3,0-19.8,4-25.4,11.9
			c-5.7,7.9-8.5,19.4-8.5,34.5c0,29.3,11.4,43.9,34.2,43.9c11.7,0,20.2-3.4,25.7-10.2c5.5-6.8,8.2-18,8.2-33.6v-1.6
			c0-16-2.7-27.5-8-34.5C756,244.3,747.3,240.8,735.3,240.8z"/>
		<path fill="#FFFFFF" d="M796.1,234.2h9.7l21.9,58c6.7,17.8,10.9,29.8,12.7,36.1h0.6c2.7-8.2,7-20.4,13-36.6l21.9-57.5h9.7
			l-46.3,120.1c-3.7,9.8-6.9,16.4-9.4,19.8c-2.5,3.4-5.5,6-8.9,7.7c-3.4,1.7-7.5,2.6-12.3,2.6c-3.6,0-7.6-0.7-12.1-2v-8.2
			c3.7,1,7.6,1.5,11.9,1.5c3.2,0,6.1-0.8,8.6-2.3c2.5-1.5,4.7-3.9,6.7-7.1c2-3.2,4.3-8.3,6.9-15.2c2.6-6.9,4.3-11.5,5.1-13.6
			L796.1,234.2z"/>
	</g>
</g>
</svg>
