<?xml version="1.0" encoding="utf-8"?>
<!-- Generator: Adobe Illustrator 17.1.0, SVG Export Plug-In . SVG Version: 6.00 Build 0)  -->
<!DOCTYPE svg PUBLIC "-//W3C//DTD SVG 1.1//EN" "http://www.w3.org/Graphics/SVG/1.1/DTD/svg11.dtd">
<svg version="1.1" id="Layer_1" xmlns="http://www.w3.org/2000/svg" xmlns:xlink="http://www.w3.org/1999/xlink" x="0px" y="0px"
	 viewBox="0 0 512 512" enable-background="new 0 0 512 512" xml:space="preserve">
<g>
	<rect x="49" y="49" fill="#5D5D5D" width="413.9" height="413.9"/>
	<g>
		<path fill="#BCC4CC" d="M163.8,209.3c-12.3,0.1-24.7,0.2-36.5-3.9c-13.1-4.6-15.7-16.1-4.8-24.7c6.5-5.1,14.2-8.7,21.6-12.3
			c8.5-4.1,9.5-8,3.9-15.6c-9.2-12.7-13.5-26.4-6.3-41.6c4.3-9,14-13.5,25.2-12.4c9.5,0.9,17.6,7.3,20.4,16.4
			c4.1,13.3,0.4,25.1-7,36.2c-0.7,1.1-1.7,2-2.4,3.1c-4,5.5-2.4,10.6,3.6,13.4c7.4,3.5,14.6,7.3,21.7,11.3c2.2,1.2,4,3.5,5.5,5.6
			c4.7,6.9,2.8,14.7-4.5,18.6c-8.1,4.4-17,5.2-26,5.8C173.5,209.6,168.7,209.3,163.8,209.3z"/>
	</g>
	<g>
		<path fill="#5F6170" d="M335.1,81.7c-3.5,0-6.8,0.3-10.2,0.7l12.4,72.4l-66.5-35c-5.7,10.4-8.9,22.3-8.9,35
			c0,40.4,32.8,73.2,73.2,73.2s73.2-32.8,73.2-73.2S375.5,81.7,335.1,81.7z"/>
		<path fill="#7B7E8E" d="M324.9,82.4c-23.4,3.3-43.2,17.6-54.1,37.5l66.5,35L324.9,82.4z"/>
	</g>
	<g>
		<g>
			<rect x="114.8" y="249.1" fill="#5F6170" width="15.2" height="175.5"/>
			<rect x="130" y="409.4" fill="#5F6170" width="279" height="15.2"/>
		</g>
		<g>
			
				<rect x="199.7" y="277.1" transform="matrix(0.58 0.8146 -0.8146 0.58 365.2767 -23.4545)" fill="#7B7E8E" width="11.3" height="130.9"/>
			
				<rect x="269.1" y="292.4" transform="matrix(0.8023 -0.5969 0.5969 0.8023 -137.3997 227.5074)" fill="#7B7E8E" width="11.3" height="57.6"/>
			
				<rect x="337.7" y="248.2" transform="matrix(0.58 0.8146 -0.8146 0.58 399.6793 -147.952)" fill="#7B7E8E" width="11.3" height="130.9"/>
		</g>
	</g>
</g>
</svg>
