<?xml version="1.0" encoding="utf-8"?>
<!-- Generator: Adobe Illustrator 17.1.0, SVG Export Plug-In . SVG Version: 6.00 Build 0)  -->
<!DOCTYPE svg PUBLIC "-//W3C//DTD SVG 1.1//EN" "http://www.w3.org/Graphics/SVG/1.1/DTD/svg11.dtd">
<svg version="1.1" id="Layer_1" xmlns="http://www.w3.org/2000/svg" xmlns:xlink="http://www.w3.org/1999/xlink" x="0px" y="0px"
	 viewBox="0 0 640 640" enable-background="new 0 0 640 640" xml:space="preserve">
<circle fill="#939598" cx="320" cy="320" r="320"/>
<path fill="#5D5D5D" d="M291.6,109.2c-7.7,0-15,0.7-22.6,1.5l27.4,160.1l-147.1-77.4c-12.6,23-19.7,49.3-19.7,77.4
	c0,89.4,72.5,161.9,161.9,161.9s161.9-72.5,161.9-161.9S380.9,109.2,291.6,109.2z"/>
<path fill="#A3D3E8" d="M269,110.7c-51.8,7.3-95.6,38.9-119.7,82.9l147.1,77.4L269,110.7z"/>
<g>
	<path fill="#C7C7C7" d="M408.3,495.8c-26.4,0.2-53.1,0.4-78.4-8.4c-28.2-9.9-33.7-34.6-10.3-53.1c14-11,30.5-18.7,46.4-26.4
		c18.3-8.8,20.4-17.2,8.4-33.5c-19.8-27.3-29-56.7-13.5-89.4c9.2-19.3,30.1-29,54.2-26.7c20.4,1.9,37.8,15.7,43.8,35.2
		c8.8,28.6,0.9,53.9-15,77.8c-1.5,2.4-3.7,4.3-5.2,6.7c-8.6,11.8-5.2,22.8,7.7,28.8c15.9,7.5,31.4,15.7,46.6,24.3
		c4.7,2.6,8.6,7.5,11.8,12c10.1,14.8,6,31.6-9.7,40c-17.4,9.5-36.5,11.2-55.9,12.5C429.2,496.5,418.9,495.8,408.3,495.8z"/>
</g>
</svg>
