<?xml version="1.0" encoding="utf-8"?>
<!-- Generator: Adobe Illustrator 17.1.0, SVG Export Plug-In . SVG Version: 6.00 Build 0)  -->
<!DOCTYPE svg PUBLIC "-//W3C//DTD SVG 1.1//EN" "http://www.w3.org/Graphics/SVG/1.1/DTD/svg11.dtd">
<svg version="1.1" id="Layer_1" xmlns="http://www.w3.org/2000/svg" xmlns:xlink="http://www.w3.org/1999/xlink" x="0px" y="0px"
	 viewBox="0 0 1280 548" enable-background="new 0 0 1280 548" xml:space="preserve">
<g>
	<rect x="-2" fill="#222222" width="1280" height="548"/>
	<g>
		<circle fill="#29ABE2" cx="535.8" cy="274" r="110.2"/>
		<path fill="#FFFFFF" d="M529,236v54.8c0,8.6-2.4,15.2-7.4,20S510,318,501.4,318s-15.2-2.4-20.2-7.2c-5-4.8-7.4-11.4-7.4-19.8v-55
			h3v54.6c0,7.4,2.2,13.4,6.8,17.8c4.4,4.4,10.4,6.6,18,6.6c7.4,0,13.4-2.2,17.8-6.6c4.4-4.4,6.8-10.4,6.8-17.8V236H529z"/>
		<path fill="#FFFFFF" d="M573.2,273.4l26-37.2h3.8l-28,39.6l29,41.2h-3.8l-27-39l-27.4,39h-3.6l29-41.2l-28-39.6h3.8L573.2,273.4z"
			/>
		<path fill="#FFFFFF" d="M677,236l33.2,76.4l33.4-76.4h4.4v80.8h-3v-76.4l-33.6,76.4h-2.2l-33.4-76v76h-3V236H677z"/>
		<path fill="#FFFFFF" d="M775.4,317h-3v-81h3V317z"/>
		<path fill="#FFFFFF" d="M823.6,273.4l26-37.2h3.8l-28,39.6l29,41.2h-3.8l-27-39l-27.4,39h-3.6l29-41.2l-28-39.6h3.8L823.6,273.4z"
			/>
	</g>
</g>
</svg>
